<svg version="1.1" id="Layer_1" xmlns="http://www.w3.org/2000/svg" xmlns:xlink="http://www.w3.org/1999/xlink" x="0px" y="0px"
	 viewBox="0 0 1024 1024" style="enable-background:new 0 0 1024 1024;" xml:space="preserve">
<style type="text/css">
	.st0{fill:#A2F5A9;}
</style>
<path class="st0" d="M870.6,798.2H512c-25.7,0-46.6-20.8-46.6-46.6V451.7c0-73.2-59.6-132.8-132.8-132.8s-132.8,59.6-132.8,132.8
	V705h132.8c25.7,0,46.6,20.8,46.6,46.6s-20.8,46.6-46.6,46.6H153.4c-25.7,0-46.6-20.8-46.6-46.6V451.7
	c0-124.6,101.3-225.9,225.9-225.9c124.6,0,225.9,101.3,225.9,225.9V705h265.5V451.7c0-73.2-59.6-132.8-132.8-132.8h-91.1
	c-25.7,0-46.6-20.8-46.6-46.6s20.8-46.6,46.6-46.6h91.1c124.6,0,225.9,101.3,225.9,225.9v299.9C917.2,777.3,896.4,798.2,870.6,798.2
	z"/>
</svg>