<svg xmlns="http://www.w3.org/2000/svg" width="231" height="67" viewBox="0 0 231 67" fill="none">
                <path d="M222.457 67H8.89148C4.19517 67 0.348846 63.2291 0.348846 58.625V8.375C0.348846 3.77084 4.19517 0 8.89148 0H222.457C227.154 0 231 3.77084 231 8.375V58.625C231 63.2291 227.154 67 222.457 67Z" fill="black"/>
                <path d="M222.457 1.34209C226.413 1.34209 229.631 4.49737 229.631 8.375V58.625C229.631 62.5026 226.413 65.6579 222.457 65.6579H8.89148C4.93624 65.6579 1.7178 62.5026 1.7178 58.625V8.375C1.7178 4.49737 4.93624 1.34209 8.89148 1.34209H222.457ZM222.457 0H8.89148C4.19517 0 0.348846 3.77084 0.348846 8.375V58.625C0.348846 63.2291 4.19517 67 8.89148 67H222.457C227.154 67 231 63.2291 231 58.625V8.375C231 3.77084 227.154 0 222.457 0Z" fill="#A6A6A6"/>
                <path d="M18.1773 12.6274C17.6755 13.1425 17.385 13.9444 17.385 14.9829V52.0255C17.385 53.064 17.6755 53.8659 18.1773 54.381L18.3012 54.494L39.4741 33.745V33.255L18.3012 12.506L18.1773 12.6274Z" fill="url(#paint0_linear_8_2)"/>
                <path d="M46.5239 40.6648L39.4741 33.745V33.255L46.5324 26.3352L46.6905 26.4252L55.0494 31.088C57.435 32.4112 57.435 34.5887 55.0494 35.9203L46.6905 40.5747L46.5239 40.6648Z" fill="url(#paint1_linear_8_2)"/>
                <path d="M46.6905 40.5747L39.4741 33.5L18.1773 54.381C18.9697 55.1975 20.2617 55.2959 21.7311 54.4794L46.6905 40.5747Z" fill="url(#paint2_linear_8_2)"/>
                <path d="M46.6905 26.4252L21.7311 12.5206C20.2617 11.7124 18.9697 11.8108 18.1773 12.6274L39.4741 33.5L46.6905 26.4252Z" fill="url(#paint3_linear_8_2)"/>
                <path d="M81.3629 17.1583C81.3629 18.5569 80.9358 19.6771 80.0943 20.5125C79.1269 21.5028 77.8668 22.0011 76.3228 22.0011C74.847 22.0011 73.587 21.4944 72.5533 20.4957C71.5175 19.4823 71.0007 18.2387 71.0007 16.75C71.0007 15.2613 71.5175 14.0177 72.5533 13.0127C73.587 12.0056 74.847 11.4989 76.3228 11.4989C77.0574 11.4989 77.7579 11.6475 78.4264 11.9239C79.0927 12.2024 79.6352 12.5792 80.0281 13.0441L79.1354 13.9276C78.4499 13.1341 77.5166 12.7426 76.3228 12.7426C75.2464 12.7426 74.3131 13.1111 73.5208 13.8543C72.737 14.5997 72.344 15.5649 72.344 16.75C72.344 17.9351 72.737 18.9086 73.5208 19.654C74.3131 20.3889 75.2464 20.7658 76.3228 20.7658C77.4653 20.7658 78.4264 20.3889 79.1845 19.6457C79.6843 19.1536 79.9683 18.4752 80.0431 17.6084H76.3228V16.3982H81.286C81.3458 16.66 81.3629 16.9133 81.3629 17.1583Z" fill="white"/>
                <path d="M89.2371 12.9624H84.5749V16.1449H88.7779V17.3551H84.5749V20.5376H89.2371V21.7708H83.2551V11.7292H89.2371V12.9624Z" fill="white"/>
                <path d="M94.794 21.7708H93.4742V12.9624H90.6146V11.7292H97.6558V12.9624H94.794V21.7708Z" fill="white"/>
                <path d="M102.752 21.7708V11.7292H104.069V21.7708H102.752Z" fill="white"/>
                <path d="M109.91 21.7708H108.601V12.9624H105.731V11.7292H112.781V12.9624H109.91V21.7708Z" fill="white"/>
                <path d="M126.111 20.479C125.101 21.4944 123.85 22.0011 122.357 22.0011C120.856 22.0011 119.604 21.4944 118.594 20.479C117.586 19.4656 117.084 18.2219 117.084 16.75C117.084 15.2781 117.586 14.0344 118.594 13.021C119.604 12.0056 120.856 11.4989 122.357 11.4989C123.841 11.4989 125.093 12.0056 126.103 13.0294C127.119 14.0512 127.621 15.2865 127.621 16.75C127.621 18.2219 127.119 19.4656 126.111 20.479ZM119.57 19.6373C120.33 20.3889 121.255 20.7658 122.357 20.7658C123.45 20.7658 124.384 20.3889 125.135 19.6373C125.894 18.8856 126.278 17.9204 126.278 16.75C126.278 15.5796 125.894 14.6144 125.135 13.8627C124.384 13.1111 123.45 12.7342 122.357 12.7342C121.255 12.7342 120.33 13.1111 119.57 13.8627C118.812 14.6144 118.427 15.5796 118.427 16.75C118.427 17.9204 118.812 18.8856 119.57 19.6373Z" fill="white"/>
                <path d="M129.473 21.7708V11.7292H131.075L136.055 19.5389H136.113L136.055 17.6084V11.7292H137.373V21.7708H135.997L130.782 13.5759H130.724L130.782 15.5147V21.7708H129.473Z" fill="white"/>
                <path d="M116.759 36.4355C112.746 36.4355 109.468 39.4295 109.468 43.5605C109.468 47.658 112.746 50.6834 116.759 50.6834C120.781 50.6834 124.059 47.658 124.059 43.5605C124.059 39.4295 120.781 36.4355 116.759 36.4355ZM116.759 47.8778C114.557 47.8778 112.663 46.096 112.663 43.5605C112.663 40.9915 114.557 39.2411 116.759 39.2411C118.961 39.2411 120.864 40.9915 120.864 43.5605C120.864 46.096 118.961 47.8778 116.759 47.8778ZM100.851 36.4355C96.8294 36.4355 93.5597 39.4295 93.5597 43.5605C93.5597 47.658 96.8294 50.6834 100.851 50.6834C104.87 50.6834 108.142 47.658 108.142 43.5605C108.142 39.4295 104.87 36.4355 100.851 36.4355ZM100.851 47.8778C98.6468 47.8778 96.7461 46.096 96.7461 43.5605C96.7461 40.9915 98.6468 39.2411 100.851 39.2411C103.053 39.2411 104.947 40.9915 104.947 43.5605C104.947 46.096 103.053 47.8778 100.851 47.8778ZM81.9203 38.6192V41.6468H89.2948C89.0791 43.3386 88.5024 44.5822 87.6183 45.4491C86.5419 46.4959 84.8654 47.658 81.9203 47.658C77.3821 47.658 73.8283 44.0672 73.8283 39.618C73.8283 35.1687 77.3821 31.578 81.9203 31.578C84.3742 31.578 86.1596 32.5181 87.4773 33.7366L89.6536 31.6031C87.8105 29.8778 85.3587 28.5525 81.9203 28.5525C75.697 28.5525 70.4668 33.5168 70.4668 39.618C70.4668 45.7191 75.697 50.6834 81.9203 50.6834C85.284 50.6834 87.8105 49.603 89.7966 47.5763C91.8319 45.581 92.4662 42.7753 92.4662 40.5099C92.4662 39.8064 92.4064 39.1594 92.2996 38.6192H81.9203ZM159.329 40.9663C158.729 39.373 156.878 36.4355 153.106 36.4355C149.369 36.4355 146.257 39.3227 146.257 43.5605C146.257 47.5512 149.337 50.6834 153.465 50.6834C156.803 50.6834 158.729 48.6881 159.522 47.526L157.044 45.9076C156.218 47.0926 155.092 47.8778 153.465 47.8778C151.848 47.8778 150.689 47.1513 149.945 45.7191L159.665 41.7766L159.329 40.9663ZM149.42 43.3385C149.337 40.5915 151.596 39.1846 153.215 39.1846C154.484 39.1846 155.56 39.8064 155.919 40.6962L149.42 43.3385ZM141.52 50.25H144.715V29.3125H141.52V50.25ZM136.288 38.0225H136.181C135.463 37.1892 134.094 36.4355 132.36 36.4355C128.721 36.4355 125.394 39.5677 125.394 43.5835C125.394 47.5763 128.721 50.6834 132.36 50.6834C134.094 50.6834 135.463 49.9234 136.181 49.065H136.288V50.0867C136.288 52.8107 134.803 54.2742 132.409 54.2742C130.457 54.2742 129.247 52.8923 128.747 51.7303L125.968 52.8672C126.769 54.7558 128.89 57.0798 132.409 57.0798C136.155 57.0798 139.316 54.9191 139.316 49.6617V36.8689H136.288V38.0225ZM132.634 47.8778C130.432 47.8778 128.589 46.0709 128.589 43.5835C128.589 41.0731 130.432 39.2411 132.634 39.2411C134.803 39.2411 136.514 41.0731 136.514 43.5835C136.514 46.0709 134.803 47.8778 132.634 47.8778ZM174.288 29.3125H166.646V50.25H169.833V42.3168H174.288C177.826 42.3168 181.297 39.8064 181.297 35.8136C181.297 31.8229 177.818 29.3125 174.288 29.3125ZM174.371 39.4044H169.833V32.2249H174.371C176.75 32.2249 178.108 34.1616 178.108 35.8136C178.108 37.4342 176.75 39.4044 174.371 39.4044ZM194.068 36.3957C191.766 36.3957 189.372 37.3923 188.387 39.6012L191.215 40.7632C191.823 39.6012 192.943 39.2243 194.126 39.2243C195.779 39.2243 197.455 40.1979 197.481 41.9169V42.1367C196.904 41.8101 195.67 41.3265 194.151 41.3265C191.106 41.3265 188.003 42.9701 188.003 46.0374C188.003 48.843 190.497 50.6499 193.301 50.6499C195.446 50.6499 196.629 49.7015 197.372 48.598H197.481V50.2165H200.558V42.1849C200.558 38.4727 197.731 36.3957 194.068 36.3957ZM193.684 47.8694C192.641 47.8694 191.189 47.3627 191.189 46.096C191.189 44.4755 193 43.8536 194.568 43.8536C195.971 43.8536 196.629 44.1572 197.481 44.5571C197.231 46.4959 195.529 47.8694 193.684 47.8694ZM211.77 36.8542L208.108 45.9306H207.999L204.212 36.8542H200.776L206.466 49.5381L203.219 56.5962H206.549L215.316 36.8542H211.77ZM183.048 50.25H186.243V29.3125H183.048V50.25Z" fill="white"/>
                <defs>
                  <linearGradient id="paint0_linear_8_2" x1="211.37" y1="3.32347" x2="198.225" y2="91.0655" gradientUnits="userSpaceOnUse">
                    <stop stop-color="#00A0FF"/>
                    <stop offset="0.0066" stop-color="#00A1FF"/>
                    <stop offset="0.2601" stop-color="#00BEFF"/>
                    <stop offset="0.5122" stop-color="#00D2FF"/>
                    <stop offset="0.7604" stop-color="#00DFFF"/>
                    <stop offset="1" stop-color="#00E3FF"/>
                  </linearGradient>
                  <linearGradient id="paint1_linear_8_2" x1="248.496" y1="33.511" x2="-300.633" y2="33.511" gradientUnits="userSpaceOnUse">
                    <stop stop-color="#FFE000"/>
                    <stop offset="0.4087" stop-color="#FFBD00"/>
                    <stop offset="0.7754" stop-color="#FFA500"/>
                    <stop offset="1" stop-color="#FF9C00"/>
                  </linearGradient>
                  <linearGradient id="paint2_linear_8_2" x1="199.257" y1="78.9602" x2="121.014" y2="286.563" gradientUnits="userSpaceOnUse">
                    <stop stop-color="#FF3A44"/>
                    <stop offset="1" stop-color="#C31162"/>
                  </linearGradient>
                  <linearGradient id="paint3_linear_8_2" x1="-43.0165" y1="-103.295" x2="-8.05687" y2="-10.5679" gradientUnits="userSpaceOnUse">
                    <stop stop-color="#32A071"/>
                    <stop offset="0.0685" stop-color="#2DA771"/>
                    <stop offset="0.4762" stop-color="#15CF74"/>
                    <stop offset="0.8009" stop-color="#06E775"/>
                    <stop offset="1" stop-color="#00F076"/>
                  </linearGradient>
                </defs>
              </svg>