<svg xmlns="http://www.w3.org/2000/svg" width="229" height="67" viewBox="0 0 229 67" fill="none">
                <path d="M227.728 59.2732C227.728 62.8437 224.813 65.7358 221.207 65.7358H7.80182C4.1977 65.7358 1.27222 62.8437 1.27222 59.2732V7.73528C1.27222 4.16646 4.1977 1.26415 7.80182 1.26415H221.205C224.813 1.26415 227.726 4.16646 227.726 7.73528L227.728 59.2732Z" fill="black"/>
                <path d="M220.519 1.34209C224.445 1.34209 227.641 4.49738 227.641 8.375V58.625C227.641 62.5026 224.445 65.6579 220.519 65.6579H8.48148C4.55456 65.6579 1.35916 62.5026 1.35916 58.625V8.375C1.35916 4.49738 4.55456 1.34209 8.48148 1.34209H220.519ZM220.519 0H8.48148C3.81879 0 0 3.77084 0 8.375V58.625C0 63.2292 3.81879 67 8.48148 67H220.519C225.181 67 229 63.2292 229 58.625V8.375C229 3.77084 225.181 0 220.519 0Z" fill="#A6A6A6"/>
                <path d="M51.106 33.1382C51.0568 27.7397 55.5826 25.1133 55.7895 24.991C53.2264 21.301 49.2537 20.7968 47.8576 20.7566C44.521 20.4099 41.2845 22.7281 39.5848 22.7281C37.8512 22.7281 35.2338 20.7901 32.4128 20.847C28.7828 20.9023 25.3868 22.9776 23.5242 26.2003C19.6804 32.7714 22.5472 42.4277 26.2298 47.7392C28.072 50.3404 30.2246 53.2449 33.0422 53.1427C35.7986 53.0305 36.8283 51.4074 40.1547 51.4074C43.4506 51.4074 44.4175 53.1427 47.2911 53.0774C50.2494 53.0305 52.1119 50.4644 53.8896 47.8397C56.0185 44.8582 56.8734 41.9219 56.9074 41.7711C56.8378 41.7477 51.162 39.6087 51.106 33.1382Z" fill="white"/>
                <path d="M45.6779 17.2625C47.1604 15.4318 48.1748 12.941 47.8932 10.4135C45.7474 10.5073 43.0639 11.8791 41.5186 13.6697C40.1513 15.2475 38.93 17.8337 39.2455 20.2658C41.656 20.4434 44.1309 19.0648 45.6779 17.2625Z" fill="white"/>
                <path d="M83.2034 16.7651C83.2034 18.7366 82.6046 20.2206 81.4087 21.2172C80.301 22.1368 78.7268 22.5974 76.6879 22.5974C75.6769 22.5974 74.8118 22.5539 74.0875 22.4668V11.6949C75.0323 11.5441 76.0501 11.4671 77.1493 11.4671C79.0915 11.4671 80.5555 11.8841 81.5427 12.7183C82.6487 13.6613 83.2034 15.0097 83.2034 16.7651ZM81.329 16.8137C81.329 15.5356 80.9863 14.5558 80.301 13.8724C79.6157 13.1906 78.6149 12.8489 77.2969 12.8489C76.7371 12.8489 76.2604 12.8858 75.8652 12.9628V21.1519C76.084 21.1854 76.4843 21.2005 77.0662 21.2005C78.4266 21.2005 79.4766 20.827 80.2162 20.0799C80.9558 19.3329 81.329 18.2441 81.329 16.8137Z" fill="white"/>
                <path d="M93.142 18.487C93.142 19.7013 92.7908 20.6963 92.0886 21.4768C91.3524 22.2792 90.377 22.6795 89.1591 22.6795C87.9852 22.6795 87.0506 22.2959 86.3534 21.5254C85.6579 20.7566 85.3102 19.7868 85.3102 18.6176C85.3102 17.3949 85.6681 16.3916 86.3873 15.6127C87.1065 14.8338 88.0734 14.4435 89.2914 14.4435C90.4652 14.4435 91.4083 14.8271 92.1225 15.5959C92.801 16.343 93.142 17.3078 93.142 18.487ZM91.2981 18.5439C91.2981 17.8153 91.1386 17.1905 90.8214 16.6696C90.4482 16.0398 89.9173 15.7249 89.2269 15.7249C88.5128 15.7249 87.97 16.0398 87.5968 16.6696C87.2779 17.1905 87.1201 17.8253 87.1201 18.5758C87.1201 19.3044 87.2796 19.9291 87.5968 20.4501C87.9818 21.0799 88.5179 21.3948 89.2099 21.3948C89.8885 21.3948 90.4211 21.0749 90.8045 20.4333C91.1336 19.9024 91.2981 19.2726 91.2981 18.5439Z" fill="white"/>
                <path d="M106.468 14.6043L103.966 22.5003H102.338L101.301 19.0715C101.038 18.2156 100.824 17.3647 100.658 16.5205H100.626C100.472 17.3882 100.258 18.2374 99.9831 19.0715L98.8822 22.5003H97.2351L94.8824 14.6043H96.7093L97.6134 18.358C97.8322 19.2457 98.012 20.0916 98.1562 20.8923H98.1884C98.3208 20.2323 98.5396 19.3915 98.8483 18.3747L99.9831 14.606H101.432L102.519 18.2943C102.782 19.1938 102.996 20.0598 103.16 20.8939H103.209C103.33 20.0816 103.511 19.2156 103.752 18.2943L104.723 14.606H106.468V14.6043Z" fill="white"/>
                <path d="M115.684 22.5003H113.906V17.9778C113.906 16.5842 113.37 15.8874 112.295 15.8874C111.767 15.8874 111.342 16.0783 111.011 16.4619C110.683 16.8455 110.517 17.2977 110.517 17.8153V22.4986H108.739V16.8606C108.739 16.1671 108.717 15.415 108.675 14.601H110.237L110.32 15.8355H110.37C110.577 15.4519 110.885 15.1353 111.291 14.8824C111.772 14.5876 112.312 14.4385 112.902 14.4385C113.648 14.4385 114.269 14.6764 114.763 15.1537C115.377 15.7383 115.684 16.611 115.684 17.7701V22.5003Z" fill="white"/>
                <path d="M120.586 22.5003H118.81V10.9813H120.586V22.5003Z" fill="white"/>
                <path d="M131.053 18.487C131.053 19.7013 130.701 20.6963 129.999 21.4768C129.263 22.2792 128.286 22.6795 127.07 22.6795C125.894 22.6795 124.959 22.2959 124.264 21.5254C123.568 20.7566 123.221 19.7868 123.221 18.6176C123.221 17.3949 123.579 16.3916 124.298 15.6127C125.017 14.8338 125.984 14.4435 127.2 14.4435C128.376 14.4435 129.317 14.8271 130.033 15.5959C130.712 16.343 131.053 17.3078 131.053 18.487ZM129.207 18.5439C129.207 17.8153 129.047 17.1905 128.73 16.6696C128.359 16.0398 127.826 15.7249 127.137 15.7249C126.422 15.7249 125.879 16.0398 125.507 16.6696C125.188 17.1905 125.031 17.8253 125.031 18.5758C125.031 19.3044 125.19 19.9291 125.507 20.4501C125.892 21.0799 126.428 21.3948 127.12 21.3948C127.799 21.3948 128.33 21.0749 128.713 20.4333C129.044 19.9024 129.207 19.2726 129.207 18.5439Z" fill="white"/>
                <path d="M139.656 22.5003H138.06L137.928 21.5907H137.878C137.332 22.316 136.554 22.6795 135.543 22.6795C134.788 22.6795 134.177 22.44 133.717 21.9643C133.3 21.5321 133.091 20.9944 133.091 20.3563C133.091 19.3915 133.499 18.6562 134.318 18.1469C135.135 17.6378 136.286 17.3882 137.766 17.3999V17.2525C137.766 16.2123 137.213 15.6931 136.106 15.6931C135.317 15.6931 134.622 15.8891 134.021 16.2777L133.66 15.1252C134.403 14.6713 135.32 14.4435 136.403 14.4435C138.492 14.4435 139.541 15.5323 139.541 17.7098V20.6176C139.541 21.4065 139.58 22.0346 139.656 22.5003ZM137.811 19.7868V18.569C135.85 18.5356 134.869 19.0665 134.869 20.1603C134.869 20.5723 134.981 20.8805 135.21 21.0866C135.439 21.2926 135.731 21.3948 136.079 21.3948C136.469 21.3948 136.833 21.2725 137.166 21.0296C137.5 20.7851 137.705 20.4752 137.782 20.095C137.8 20.0096 137.811 19.9057 137.811 19.7868Z" fill="white"/>
                <path d="M149.758 22.5003H148.18L148.097 21.2323H148.048C147.544 22.1971 146.686 22.6795 145.48 22.6795C144.516 22.6795 143.714 22.306 143.078 21.5589C142.441 20.8119 142.124 19.842 142.124 18.6511C142.124 17.3731 142.469 16.3379 143.161 15.5473C143.831 14.8103 144.652 14.4418 145.629 14.4418C146.703 14.4418 147.454 14.7986 147.881 15.5138H147.915V10.9813H149.695V20.373C149.695 21.1418 149.715 21.8504 149.758 22.5003ZM147.915 19.1704V17.8538C147.915 17.626 147.898 17.4418 147.866 17.3011C147.766 16.879 147.551 16.5239 147.223 16.2374C146.893 15.951 146.494 15.807 146.034 15.807C145.371 15.807 144.852 16.0666 144.47 16.5875C144.092 17.1084 143.9 17.7734 143.9 18.5858C143.9 19.3663 144.082 19.9995 144.446 20.4869C144.832 21.0062 145.351 21.2658 146 21.2658C146.584 21.2658 147.05 21.0497 147.405 20.6159C147.747 20.2156 147.915 19.7332 147.915 19.1704Z" fill="white"/>
                <path d="M164.961 18.487C164.961 19.7013 164.61 20.6963 163.908 21.4768C163.172 22.2792 162.198 22.6795 160.979 22.6795C159.806 22.6795 158.872 22.2959 158.173 21.5254C157.477 20.7566 157.13 19.7868 157.13 18.6176C157.13 17.3949 157.488 16.3916 158.207 15.6127C158.926 14.8338 159.893 14.4435 161.113 14.4435C162.285 14.4435 163.23 14.8271 163.942 15.5959C164.621 16.343 164.961 17.3078 164.961 18.487ZM163.119 18.5439C163.119 17.8153 162.96 17.1905 162.643 16.6696C162.268 16.0398 161.739 15.7249 161.046 15.7249C160.334 15.7249 159.791 16.0398 159.416 16.6696C159.097 17.1905 158.94 17.8253 158.94 18.5758C158.94 19.3044 159.099 19.9291 159.416 20.4501C159.801 21.0799 160.337 21.3948 161.029 21.3948C161.708 21.3948 162.242 21.0749 162.626 20.4333C162.953 19.9024 163.119 19.2726 163.119 18.5439Z" fill="white"/>
                <path d="M174.52 22.5003H172.744V17.9778C172.744 16.5842 172.208 15.8874 171.131 15.8874C170.603 15.8874 170.178 16.0783 169.848 16.4619C169.519 16.8455 169.355 17.2977 169.355 17.8153V22.4986H167.575V16.8606C167.575 16.1671 167.555 15.415 167.513 14.601H169.073L169.156 15.8355H169.206C169.414 15.4519 169.723 15.1353 170.127 14.8824C170.61 14.5876 171.148 14.4385 171.74 14.4385C172.485 14.4385 173.105 14.6764 173.599 15.1537C174.215 15.7383 174.52 16.611 174.52 17.7701V22.5003Z" fill="white"/>
                <path d="M186.484 15.9192H184.527V19.755C184.527 20.7298 184.874 21.2172 185.563 21.2172C185.882 21.2172 186.147 21.1904 186.355 21.1352L186.401 22.4668C186.05 22.5974 185.588 22.6628 185.02 22.6628C184.318 22.6628 183.772 22.4517 183.376 22.0296C182.98 21.6075 182.783 20.8973 182.783 19.9007V15.9192H181.614V14.6043H182.783V13.1571L184.525 12.6379V14.6027H186.482V15.9192H186.484Z" fill="white"/>
                <path d="M195.895 22.5003H194.116V18.0113C194.116 16.5959 193.58 15.8874 192.506 15.8874C191.682 15.8874 191.118 16.2977 190.81 17.1185C190.757 17.291 190.727 17.5021 190.727 17.75V22.4986H188.95V10.9813H190.727V15.74H190.76C191.32 14.874 192.123 14.4418 193.162 14.4418C193.899 14.4418 194.508 14.6797 194.991 15.1571C195.593 15.7517 195.895 16.6361 195.895 17.8052V22.5003Z" fill="white"/>
                <path d="M205.603 18.1788C205.603 18.4937 205.579 18.7583 205.537 18.9744H200.205C200.229 19.7549 200.484 20.3496 200.977 20.7616C201.428 21.1301 202.01 21.3144 202.723 21.3144C203.511 21.3144 204.231 21.1904 204.879 20.9408L205.157 22.1602C204.399 22.4852 203.506 22.6477 202.473 22.6477C201.235 22.6477 200.26 22.2875 199.554 21.5673C198.845 20.847 198.494 19.8806 198.494 18.6679C198.494 17.4769 198.821 16.4853 199.481 15.6947C200.17 14.8505 201.101 14.4284 202.277 14.4284C203.427 14.4284 204.3 14.8505 204.891 15.6947C205.367 16.3647 205.603 17.1939 205.603 18.1788ZM203.907 17.7248C203.92 17.2039 203.803 16.755 203.562 16.3765C203.254 15.889 202.784 15.6445 202.148 15.6445C201.568 15.6445 201.094 15.8823 200.733 16.3597C200.438 16.7399 200.263 17.1939 200.205 17.7248H203.907Z" fill="white"/>
                <path d="M90.9978 52.7692H87.1455L85.0353 46.2216H77.7005L75.6904 52.7692H71.9399L79.2069 30.4783H83.6953L90.9978 52.7692ZM84.3992 43.4746L82.4909 37.654C82.289 37.0593 81.9108 35.659 81.3527 33.4547H81.2848C81.0626 34.4028 80.7047 35.8031 80.2128 37.654L78.3384 43.4746H84.3992Z" fill="white"/>
                <path d="M109.686 44.5349C109.686 47.2685 108.938 49.4292 107.442 51.0155C106.102 52.4275 104.438 53.1327 102.451 53.1327C100.307 53.1327 98.7668 52.3722 97.8288 50.8513H97.7609V59.3185H94.1444V41.9872C94.1444 40.2687 94.0986 38.5049 94.0104 36.6959H97.191L97.3929 39.2436H97.4607C98.6668 37.324 100.497 36.3659 102.953 36.3659C104.874 36.3659 106.477 37.1146 107.759 38.6138C109.045 40.1146 109.686 42.0877 109.686 44.5349ZM106.002 44.6656C106.002 43.1011 105.645 41.8114 104.929 40.7963C104.147 39.7377 103.097 39.2084 101.781 39.2084C100.889 39.2084 100.078 39.5032 99.3538 40.0844C98.6277 40.6707 98.1528 41.4361 97.9306 42.3842C97.8186 42.8264 97.7626 43.1882 97.7626 43.4729V46.153C97.7626 47.3221 98.1256 48.3087 98.8517 49.1143C99.5777 49.92 100.521 50.322 101.681 50.322C103.043 50.322 104.103 49.8028 104.862 48.7676C105.622 47.7308 106.002 46.364 106.002 44.6656Z" fill="white"/>
                <path d="M128.408 44.5349C128.408 47.2685 127.66 49.4292 126.162 51.0155C124.824 52.4275 123.16 53.1327 121.173 53.1327C119.029 53.1327 117.489 52.3722 116.553 50.8513H116.485V59.3185H112.868V41.9872C112.868 40.2687 112.822 38.5049 112.734 36.6959H115.915L116.117 39.2436H116.184C117.389 37.324 119.219 36.3659 121.677 36.3659C123.596 36.3659 125.199 37.1146 126.484 38.6138C127.765 40.1146 128.408 42.0877 128.408 44.5349ZM124.724 44.6656C124.724 43.1011 124.366 41.8114 123.65 40.7963C122.868 39.7377 121.821 39.2084 120.503 39.2084C119.609 39.2084 118.8 39.5032 118.074 40.0844C117.348 40.6707 116.875 41.4361 116.653 42.3842C116.542 42.8264 116.485 43.1882 116.485 43.4729V46.153C116.485 47.3221 116.848 48.3087 117.57 49.1143C118.296 49.9184 119.239 50.322 120.403 50.322C121.765 50.322 122.825 49.8028 123.584 48.7676C124.344 47.7308 124.724 46.364 124.724 44.6656Z" fill="white"/>
                <path d="M149.34 46.5181C149.34 48.4142 148.674 49.9569 147.335 51.1478C145.865 52.4493 143.817 53.0992 141.186 53.0992C138.757 53.0992 136.81 52.6369 135.336 51.7106L136.174 48.7341C137.761 49.6822 139.503 50.1579 141.402 50.1579C142.764 50.1579 143.824 49.853 144.586 49.2467C145.344 48.6403 145.722 47.8263 145.722 46.8112C145.722 45.9067 145.41 45.1446 144.784 44.5265C144.161 43.9084 143.122 43.3339 141.67 42.8029C137.717 41.3474 135.743 39.2151 135.743 36.4111C135.743 34.5787 136.435 33.0762 137.821 31.9071C139.201 30.7362 141.044 30.1517 143.347 30.1517C145.401 30.1517 147.108 30.5051 148.47 31.2103L147.566 34.1214C146.294 33.438 144.855 33.0963 143.245 33.0963C141.973 33.0963 140.979 33.4062 140.267 34.0226C139.665 34.5737 139.363 35.2453 139.363 36.041C139.363 36.922 139.707 37.6506 140.399 38.2235C141.001 38.7528 142.095 39.3256 143.683 39.9437C145.625 40.7159 147.052 41.6187 147.97 42.6539C148.884 43.6857 149.34 44.9771 149.34 46.5181Z" fill="white"/>
                <path d="M161.297 39.3759H157.311V47.1797C157.311 49.1646 158.013 50.1562 159.421 50.1562C160.068 50.1562 160.604 50.1009 161.028 49.9903L161.128 52.7022C160.415 52.9651 159.477 53.0975 158.315 53.0975C156.887 53.0975 155.771 52.667 154.965 51.8077C154.163 50.9468 153.759 49.5029 153.759 47.4745V39.3725H151.384V36.6925H153.759V33.7495L157.311 32.6909V36.6925H161.297V39.3759Z" fill="white"/>
                <path d="M179.283 44.6002C179.283 47.0708 178.567 49.0993 177.139 50.6855C175.641 52.3186 173.653 53.1327 171.175 53.1327C168.787 53.1327 166.885 52.3504 165.467 50.786C164.049 49.2215 163.34 47.2467 163.34 44.8665C163.34 42.3758 164.069 40.3357 165.533 38.7494C166.994 37.1615 168.965 36.3676 171.443 36.3676C173.831 36.3676 175.753 37.1498 177.204 38.7159C178.591 40.2352 179.283 42.1966 179.283 44.6002ZM175.531 44.7158C175.531 43.2334 175.21 41.9621 174.561 40.9018C173.803 39.6188 172.719 38.9789 171.314 38.9789C169.86 38.9789 168.756 39.6204 167.998 40.9018C167.348 41.9638 167.027 43.2552 167.027 44.7828C167.027 46.2652 167.348 47.5365 167.998 48.5951C168.78 49.8781 169.872 50.518 171.282 50.518C172.663 50.518 173.747 49.8647 174.529 48.5616C175.195 47.4812 175.531 46.1965 175.531 44.7158Z" fill="white"/>
                <path d="M191.039 39.8365C190.681 39.7712 190.299 39.7377 189.899 39.7377C188.626 39.7377 187.643 40.2117 186.951 41.1614C186.348 41.999 186.046 43.0575 186.046 44.3356V52.7692H182.432L182.465 41.7578C182.465 39.9052 182.42 38.2185 182.33 36.6976H185.48L185.612 39.7729H185.712C186.094 38.716 186.696 37.865 187.52 37.2269C188.326 36.6523 189.196 36.3659 190.134 36.3659C190.469 36.3659 190.771 36.3894 191.039 36.4313V39.8365Z" fill="white"/>
                <path d="M207.213 43.9721C207.213 44.6119 207.17 45.1513 207.08 45.5918H196.231C196.273 47.1797 196.798 48.3941 197.805 49.2316C198.719 49.9803 199.902 50.3555 201.354 50.3555C202.96 50.3555 204.426 50.1026 205.744 49.5951L206.31 52.0741C204.77 52.7374 202.952 53.0673 200.853 53.0673C198.329 53.0673 196.348 52.3337 194.906 50.8681C193.468 49.4024 192.747 47.4343 192.747 44.9654C192.747 42.5416 193.417 40.5233 194.759 38.9136C196.163 37.195 198.061 36.3358 200.45 36.3358C202.796 36.3358 204.572 37.195 205.778 38.9136C206.733 40.2787 207.213 41.9671 207.213 43.9721ZM203.764 43.0458C203.788 41.9872 203.552 41.0727 203.062 40.3005C202.436 39.3072 201.474 38.8114 200.18 38.8114C198.998 38.8114 198.036 39.2955 197.301 40.267C196.699 41.0392 196.341 41.9654 196.231 43.0441H203.764V43.0458Z" fill="white"/>
              </svg>