
<?xml version="1.0" encoding="utf-8"?>
<!-- Generator: Adobe Illustrator 27.0.0, SVG Export Plug-In . SVG Version: 6.00 Build 0)  -->
<svg version="1.1" id="Layer_1" xmlns="http://www.w3.org/2000/svg" xmlns:xlink="http://www.w3.org/1999/xlink" x="50px" y="50px"
	 viewBox="0 0 45 45" style="enable-background:new 0 0 45 45;" xml:space="preserve">
<style type="text/css">
	.st0{fill:#4D4D4D;}
</style>
<g>
	<path class="st0" d="M36.5,18L27,8.5c-1.6-1.6-4.2-1.6-5.8,0l-4.3,4.3c-0.4,0.4-0.4,1.2,0,1.6l13.7,13.7c0.4,0.4,1.2,0.4,1.6,0
		l4.3-4.3C38.1,22.2,38.1,19.6,36.5,18z"/>
	<path class="st0" d="M14.2,16.6c-0.3-0.3-0.9-0.3-1.2,0l-0.6,0.6c-1.5,1.5-1.5,4,0,5.6l2.9,2.9l-7.1,5.9c-1.3,1.3-1.3,3.3,0,4.6
		l0.6,0.6c1.3,1.3,3.3,1.3,4.6,0l5.9-7.1l2.9,2.9c1.5,1.5,4,1.5,5.6,0l0.6-0.6c0.3-0.3,0.3-0.9,0-1.2L14.2,16.6z"/>
</g>
</svg>
